<svg id="Camada_1" xmlns="http://www.w3.org/2000/svg" viewBox="0 0 2048 2048"><style>.st0{fill:#fff}</style><path d="M100.5 1253.1C59.8 1196.6 40 1112.4 40 1001.4v-331C40 594 47.9 531.6 63.8 482c15.9-48.6 43.6-86.2 82.3-113 38.7-26.8 91.2-39.6 158.6-39.6 91.2 0 156.6 22.8 197.2 69.4 39.6 46.6 60.5 118.9 60.5 218v36.7H432.5v-30.7c0-46.6-3-83.3-7.9-109-5.9-25.8-17.8-44.6-36.7-57.5-17.8-12.9-44.6-19.8-80.3-19.8-38.7 0-67.4 8.9-85.2 26.8-17.8 17.8-30.7 40.6-36.7 69.4-5 29.7-7.9 68.4-7.9 117v365.7c0 76.3 8.9 129.8 27.8 163.5 17.8 32.7 53.5 48.6 105.1 48.6s86.2-17.8 106-53.5c18.8-35.7 28.7-93.2 28.7-171.5V934H319.5v-97.1h249.8v488.6H483l-13.9-114c-30.7 84.2-89.2 125.9-175.4 125.9-89.2 0-153.6-27.8-193.2-84.3zm1603.6-914.8h132.8l211.1 987.2h-130.8l-44.6-248.8h-201.2l-47.6 248.8H1495l209.1-987.2zm150.6 639.3l-83.3-445-81.3 445h164.6z"/><path class="st0" d="M60.5 1213.1C19.8 1156.6 0 1072.4 0 961.4v-331C0 554 7.9 491.6 23.8 442c15.9-48.6 43.6-86.2 82.3-113 38.7-26.8 91.2-39.6 158.6-39.6 91.2 0 156.6 22.8 197.2 69.4 39.6 46.6 60.5 118.9 60.5 218v36.7H392.5v-30.7c0-46.6-3-83.3-7.9-109-5.9-25.8-17.8-44.6-36.7-57.5-17.8-12.9-44.6-19.8-80.3-19.8-38.7 0-67.4 8.9-85.2 26.8-17.8 17.8-30.7 40.6-36.7 69.4-5 29.7-7.9 68.4-7.9 117v365.7c0 76.3 8.9 129.8 27.8 163.5 17.8 32.7 53.5 48.6 105.1 48.6s86.2-17.8 106-53.5c18.8-35.7 28.7-93.2 28.7-171.5V894H279.5v-97.1h249.8v488.6H443l-13.9-114c-30.7 84.2-89.2 125.9-175.4 125.9-89.2 0-153.6-27.8-193.2-84.3zm1603.6-914.8h132.8l211.1 987.2h-130.8l-44.6-248.8h-201.2l-47.6 248.8H1455l209.1-987.2zm150.6 639.3l-83.3-445-81.3 445h164.6z"/><path d="M1257.1 1282.9h-5l-13.9-3H934c3-45.6 6.9-92.2 7.9-138.8l8.9-389.5c0-9.9-4-19.8-7.9-29.7-5-15.9-16.8-30.7-16.8-45.6 0-45.6 4-91.2 7.9-136.8 1-16.8 1-28.7-21.8-33.7-33.7-5.9-67.4-24.8-101.1-23.8-91.2 3-101.1 1-141.7-82.3l-5-8.9c-3-3-6.9-7.9-10.9-7.9-52.5-1-107 8.9-151.6-29.7v-6.9l11.9-3c17.8-5.9 36.7-17.8 55.5-15.9 48.6 3 98.1 20.8 145.7 16.8 94.2-5.9 186.3-25.8 279.5-35.7 34.7-3 49.6-12.9 48.6-48.6-1-12.9 1-26.8 3-40.6 5-32.7-3-71.4 38.7-86.2l6.9-3h13.9c29.7 5.9 41.6 26.8 44.6 53.5 2 25.8 5 50.5 3 75.3-3 34.7 5 53.5 43.6 46.6 7.9-1 15.9 1 23.8 2 56.5 8.9 112 22.8 168.5 25.8 66.4 3 131.8-4 193.3-33.7 13.9-6.9 33.7 2 51.5 3h57.5v6.9c-4 5-6.9 13.9-12.9 15.9-29.7 10.9-60.5 26.8-92.2 29.7-40.6 3-67.4 10.9-78.3 56.5-5.9 23.8-19.8 49.6-55.5 55.5-67.4 9.9-133.8 26.8-200.2 41.6-4 0-8.9 5.9-8.9 9.9 2 45.6 6.9 91.2 7.9 135.8 1 77.3 5 153.6 0 229.9-4 48.6 1 96.1-7.9 146.7-15.1 80.4 6.8 167.6 13.7 251.9z"/><path class="st0" d="M1217.1 1242.9h-5l-13.9-3H894c3-45.6 6.9-92.2 7.9-138.8l8.9-389.5c0-9.9-4-19.8-7.9-29.7-5-15.9-16.8-30.7-16.8-45.6 0-45.6 4-91.2 7.9-136.8 1-16.8 1-28.7-21.8-33.7-33.7-5.9-67.4-24.8-101.1-23.8-91.2 3-101.1 1-141.7-82.3l-5-8.9c-3-3-6.9-7.9-10.9-7.9-52.5-1-107 8.9-151.6-29.7v-6.9l11.9-3c17.8-5.9 36.7-17.8 55.5-15.9 48.6 3 98.1 20.8 145.7 16.8 94.2-5.9 186.3-25.8 279.5-35.7 34.7-3 49.6-12.9 48.6-48.6-1-12.9 1-26.8 3-40.6 5-32.7-3-71.4 38.7-86.2l6.9-3h13.9c29.7 5.9 41.6 26.8 44.6 53.5 2 25.8 5 50.5 3 75.3-3 34.7 5 53.5 43.6 46.6 7.9-1 15.9 1 23.8 2 56.5 8.9 112 22.8 168.5 25.8 66.4 3 131.8-4 193.3-33.7 13.9-6.9 33.7 2 51.5 3h57.5v6.9c-4 5-6.9 13.9-12.9 15.9-29.7 10.9-60.5 26.8-92.2 29.7-40.6 3-67.4 10.9-78.3 56.5-5.9 23.8-19.8 49.6-55.5 55.5-67.4 9.9-133.8 26.8-200.2 41.6-4 0-8.9 5.9-8.9 9.9 2 45.6 6.9 91.2 7.9 135.8 1 77.3 5 153.6 0 229.9-4 48.6 1 96.1-7.9 146.7-15.1 80.4 6.8 167.6 13.7 251.9z"/><g><path d="M947.9 1232.3v-2h277.5c5 0 8.9 2 12.9 3l-290.4-1zm137.7-1049.6v-2h6.9l-6.9 2z"/><path class="st0" d="M907.9 1192.3v-2h277.5c5 0 8.9 2 12.9 3l-290.4-1zm137.7-1049.6v-2h6.9l-6.9 2z"/></g><g><path d="M926.1 1212.5l28.7-5.9c146.7-32.7 244.8-4 292.4 86.2l7.9 19.8 2 9.9c6.9 28.7-48.6 91.2-165.5 188.3 64.4 132.8 103.1 226 115 281.5l4 3 1 3-1 10.9 9.9 28.7-3 4-5.9 2c-2-8.9-5-12.9-9.9-11.9 2 6.9 0 9.9-4 10.9l-6.9 2-4-3-3 1c-2 9.9-4 14.9-6.9 15.9H1159l-5 7.9c-4-10.9-10.9-14.9-19.8-12.9-53.5-73.3-105.1-161.6-155.6-262.6l-136.8 83.3c-6.9 33.7-13.9 53.5-20.8 59.5v16.8l-9.9 3 5.9-39.6-1-3h-4l-7.9 40.6 7.9 5c-7.9 2-19.8 28.7-33.7 80.3-3 0-6.9 15.9-9.9 46.6-5 1-10.9 25.8-18.8 73.3l-3 1c-3-9.9-15.9-16.8-38.7-18.8l-5 7.9c-1-5-5-5.9-11.9-5l-8.9 5.9c-7.9-10.9-15.9-15.9-23.8-14.9l-3-10.9c-11.9-52.5 15.9-213.1 83.3-480.7-53.5-21.8-82.3-41.6-86.2-60.5l-4-16.8c-1-11.9 35.7-40.6 109-86.2 7.1-19.9 62.6-41.7 168.7-65.5zm-47.6 283.4l6.9-1c118.9-86.2 188.3-148.7 209.1-188.3l-1-4-65.4 11.9-6.9 2c-83.3 17.8-122.9 37.7-118.9 56.5-10.9 72.4-18.9 113-23.8 122.9z"/><path d="M1302.7 1161l20.8-5c41.6-8.9 78.3 2 110 33.7l3 13.9c2 6.9-11.9 51.5-39.6 133.8l-82.3 349.9c-11.9 41.6-20.8 65.4-27.8 72.4l-5-3-3 1-3 18.8-6.9 2 1-25.8-23.8 71.4-4 1-4-3-1-4 3-4-2-6.9-3 1-6.9 33.7-6.9 2-1-4 3-18.8-45.6 57.5-11.9-4 3-5-2-9.9-9.9 8.9-7.9-5c-6.9-30.7 32.7-247.8 117.9-651.2 4.1-29.6 16-47.5 35.8-51.4zm34.7 467.8l1 5h3l-1-5.9-3 .9zm509.4-610.6l4-1c23.8-5.9 53.5 11.9 88.2 52.5l4 3 4 16.8c3 10.9-13.9 24.8-47.6 40.6v3c71.4 57.5 114 115 126.9 175.4l4 17.8c33.7 148.7-8.9 258.7-127.9 330-41.6 21.8-76.3 35.7-105.1 41.6l-40.6 8.9c-113 25.8-207.1-13.9-282.5-118.9-6.9 1-16.8-18.8-27.8-58.5l-5.9-24.8c-24.8-112 33.7-231.9 175.4-358.8 92.1-71.1 168.5-113.7 230.9-127.6zm-264.6 487.7l1 4c8.9 39.6 39.6 57.5 91.2 51.5l29.7-5.9c78.3-17.8 140.7-78.3 187.3-183.4 5-25.8 5.9-59.5 1-99.1-9.9-31.7-17.8-50.5-23.8-56.5l1-10.9c-13.9-32.7-22.8-49.6-25.8-48.6-69.4 24.8-141.7 90.2-216.1 193.3-39.6 61.4-55.4 112.9-45.5 155.6z"/><g><linearGradient id="SVGID_1_" gradientUnits="userSpaceOnUse" x1="873.0581" y1="1175.161" x2="873.0581" y2="1174.1699" gradientTransform="matrix(614.6033 0 0 -771.1735 -535671.25 907406.5)"><stop offset=".15" stop-color="#ff32d2"/><stop offset="1" stop-color="#ff326c"/></linearGradient><path d="M886.1 1172.5l28.7-5.9c146.7-32.7 244.8-4 292.4 86.2l7.9 19.8 2 9.9c6.9 28.7-48.6 91.2-165.5 188.3 64.4 132.8 103.1 226 115 281.5l4 3 1 3-1 10.9 9.9 28.7-3 4-5.9 2c-2-8.9-5-12.9-9.9-11.9 2 6.9 0 9.9-4 10.9l-6.9 2-4-3-3 1c-2 9.9-4 14.9-6.9 15.9H1119l-5 7.9c-4-10.9-10.9-14.9-19.8-12.9-53.5-73.3-105.1-161.6-155.6-262.6l-136.8 83.3c-6.9 33.7-13.9 53.5-20.8 59.5v16.8l-9.9 3 5.9-39.6-1-3h-4l-7.9 40.6 7.9 5c-7.9 2-19.8 28.7-33.7 80.3-3 0-6.9 15.9-9.9 46.6-5 1-10.9 25.8-18.8 73.3l-3 1c-3-9.9-15.9-16.8-38.7-18.8l-5 7.9c-1-5-5-5.9-11.9-5l-8.9 5.9c-7.9-10.9-15.9-15.9-23.8-14.9l-3-10.9c-11.9-52.5 15.9-213.1 83.3-480.7-53.5-21.8-82.3-41.6-86.2-60.5l-4-16.8c-1-11.9 35.7-40.6 109-86.2 7.1-19.9 62.6-41.7 168.7-65.5zm-47.6 283.4l6.9-1c118.9-86.2 188.3-148.7 209.1-188.3l-1-4-65.4 11.9-6.9 2c-83.3 17.8-122.9 37.7-118.9 56.5-10.9 72.4-18.9 113-23.8 122.9z" fill="url(#SVGID_1_)"/><linearGradient id="SVGID_2_" gradientUnits="userSpaceOnUse" x1="873.5101" y1="1175.0271" x2="873.5101" y2="1174.036" gradientTransform="matrix(901.042 0 0 -870.127 -785514.5 1023399)"><stop offset=".15" stop-color="#ff32d2"/><stop offset="1" stop-color="#ff326c"/></linearGradient><path d="M1262.7 1121l20.8-5c41.6-8.9 78.3 2 110 33.7l3 13.9c2 6.9-11.9 51.5-39.6 133.8l-82.3 349.9c-11.9 41.6-20.8 65.4-27.8 72.4l-5-3-3 1-3 18.8-6.9 2 1-25.8-23.8 71.4-4 1-4-3-1-4 3-4-2-6.9-3 1-6.9 33.7-6.9 2-1-4 3-18.8-45.6 57.5-11.9-4 3-5-2-9.9-9.9 8.9-7.9-5c-6.9-30.7 32.7-247.8 117.9-651.2 4.1-29.6 16-47.5 35.8-51.4zm34.7 467.8l1 5h3l-1-5.9-3 .9zm509.4-610.6l4-1c23.8-5.9 53.5 11.9 88.2 52.5l4 3 4 16.8c3 10.9-13.9 24.8-47.6 40.6v3c71.4 57.5 114 115 126.9 175.4l4 17.8c33.7 148.7-8.9 258.7-127.9 330-41.6 21.8-76.3 35.7-105.1 41.6l-40.6 8.9c-113 25.8-207.1-13.9-282.5-118.9-6.9 1-16.8-18.8-27.8-58.5l-5.9-24.8c-24.8-112 33.7-231.9 175.4-358.8 92.1-71.1 168.5-113.7 230.9-127.6zm-264.6 487.7l1 4c8.9 39.6 39.6 57.5 91.2 51.5l29.7-5.9c78.3-17.8 140.7-78.3 187.3-183.4 5-25.8 5.9-59.5 1-99.1-9.9-31.7-17.8-50.5-23.8-56.5l1-10.9c-13.9-32.7-22.8-49.6-25.8-48.6-69.4 24.8-141.7 90.2-216.1 193.3-39.6 61.4-55.4 112.9-45.5 155.6z" fill="url(#SVGID_2_)"/></g></g></svg>